<?xml version="1.0" encoding="UTF-8"?>
<svg width="14px" height="14px" viewBox="0 0 14 14" version="1.1" xmlns="http://www.w3.org/2000/svg" xmlns:xlink="http://www.w3.org/1999/xlink">
    <title>Clear button Copyexpand</title>
    <g id="03-Overview" stroke="none" stroke-width="1" fill="none" fill-rule="evenodd">
        <g id="Group" transform="translate(-1.000000, -1.000000)" fill="#008EFF">
            <g id="Clear-button-Copy" transform="translate(8.000000, 8.000000) rotate(90.000000) translate(-8.000000, -8.000000) ">
                <path d="M7.21340625,8.60984375 L7.39015625,8.78659375 C7.53659375,8.93303125 7.53659375,9.17046875 7.39015625,9.3169375 L2.70709374,13.9999922 L4.62499999,13.9999922 C4.83209374,13.9999922 4.99999998,14.1679063 4.99999998,14.375 L4.99999998,14.625 C4.99999998,14.8320938 4.83209374,14.9999922 4.62499999,14.9999922 L1.37499998,14.9999922 C1.16790623,14.9999922 0.999999983,14.8320938 0.999999983,14.625 L0.999999983,11.375 C0.999999983,11.1679063 1.16790623,10.9999922 1.37499998,10.9999922 L1.62499998,10.9999922 C1.83209373,10.9999922 1.99999998,11.1679063 1.99999998,11.375 L1.99999998,13.2929063 L6.6830625,8.60984375 C6.82953125,8.463375 7.06696875,8.463375 7.21340625,8.60984375 Z M14.625,0.999999983 L11.375,0.999999983 C11.1679063,0.999999983 11,1.16790623 11,1.37499998 L11,1.62499998 C11,1.83209373 11.1679063,1.99999998 11.375,1.99999998 L13.2929063,1.99999998 L8.60984375,6.6830625 C8.46340625,6.8295 8.46340625,7.0669375 8.60984375,7.21340625 L8.78659375,7.39015625 C8.93303125,7.53659375 9.17046875,7.53659375 9.3169375,7.39015625 L14,2.70709374 L14,4.62499999 C14,4.83209374 14.1679063,4.99999998 14.375,4.99999998 L14.625,4.99999998 C14.8320938,4.99999998 15,4.83209374 15,4.62499999 L15,1.37499998 C15,1.16790623 14.8320938,0.999999983 14.625,0.999999983 Z" id="Worfklow,-Status-&amp;-UI/01-Light/expand-alt"></path>
            </g>
        </g>
    </g>
</svg>