<?xml version="1.0" encoding="UTF-8"?>
<svg width="18px" height="16px" viewBox="0 0 18 16" version="1.1" xmlns="http://www.w3.org/2000/svg" xmlns:xlink="http://www.w3.org/1999/xlink">
    <title>Worfklow, Status &amp; UI/01 Light/th Copy 3list-blue</title>
    <g id="03-Overview" stroke="none" stroke-width="1" fill="none" fill-rule="evenodd">
        <g id="Worfklow,-Status-&amp;-UI/01-Light/th-Copy" transform="translate(0.000000, -1.000000)" fill="#008EFF">
            <path d="M-2.25000003e-08,2.81249998 L-2.25000003e-08,15.1875 C-2.25000003e-08,16.1194922 0.755507792,16.875 1.68749998,16.875 L16.3125,16.875 C17.2444922,16.875 18,16.1194922 18,15.1875 L18,2.81249998 C18,1.88050779 17.2444922,1.12499998 16.3125,1.12499998 L1.68749998,1.12499998 C0.755507792,1.12499998 -2.25000003e-08,1.88050779 -2.25000003e-08,2.81249998 Z M16.875,2.81249998 L16.875,6.00001171 L6.74999999,6.00001171 L6.74999999,2.24999998 L16.3125,2.24999998 C16.6231758,2.24999998 16.875,2.5018242 16.875,2.81249998 Z M16.875,10.8749883 L6.74999999,10.8749883 L6.74999999,7.12501171 L16.875,7.12501171 L16.875,10.8749883 Z M1.12499998,7.12501171 L5.62499998,7.12501171 L5.62499998,10.8750234 L1.12499998,10.8750234 L1.12499998,7.12501171 Z M5.62499998,2.24999998 L5.62499998,6.00001171 L1.12499998,6.00001171 L1.12499998,2.81249998 C1.12499998,2.5018242 1.3768242,2.24999998 1.68749998,2.24999998 L5.62499998,2.24999998 Z M1.12499998,15.1875 L1.12499998,11.9999883 L5.62499998,11.9999883 L5.62499998,15.75 L1.68749998,15.75 C1.3768242,15.75 1.12499998,15.4981758 1.12499998,15.1875 Z M6.74999999,15.75 L6.74999999,11.9999883 L16.875,11.9999883 L16.875,15.1875 C16.875,15.4981758 16.6231758,15.75 16.3125,15.75 L6.74999999,15.75 Z" id="Worfklow,-Status-&amp;-UI/01-Light/th-list"></path>
        </g>
    </g>
</svg>