<?xml version="1.0" encoding="UTF-8"?>
<svg width="22px" height="22px" viewBox="0 0 22 22" version="1.1" xmlns="http://www.w3.org/2000/svg" xmlns:xlink="http://www.w3.org/1999/xlink">
    <title>Clear buttoncollapse</title>
    <g id="03-Overview" stroke="none" stroke-width="1" fill="none" fill-rule="evenodd">
        <g id="Clear-button" transform="translate(-1.000000, -1.000000)" fill="#008EFF">
            <path d="M21.9375,8.99999997 L16.125,8.99999997 C15.5015625,8.99999997 15,8.49843749 15,7.87499999 L15,2.06249998 C15,1.75312497 15.253125,1.49999997 15.5625,1.49999997 L16.6875,1.49999997 C16.996875,1.49999997 17.25,1.75312497 17.25,2.06249998 L17.25,6.74999999 L21.9375,6.74999999 C22.246875,6.74999999 22.5,7.00312499 22.5,7.31249999 L22.5,8.43749999 C22.5,8.74687499 22.246875,8.99999997 21.9375,8.99999997 Z M8.99999997,7.87499999 L8.99999997,2.06249998 C8.99999997,1.75312497 8.74687499,1.49999997 8.43749999,1.49999997 L7.31249999,1.49999997 C7.00312499,1.49999997 6.74999999,1.75312497 6.74999999,2.06249998 L6.74999999,6.74999999 L2.06249998,6.74999999 C1.75312497,6.74999999 1.49999997,7.00312499 1.49999997,7.31249999 L1.49999997,8.43749999 C1.49999997,8.74687499 1.75312497,8.99999997 2.06249998,8.99999997 L7.87499999,8.99999997 C8.49843749,8.99999997 8.99999997,8.49843749 8.99999997,7.87499999 Z M8.99999997,21.9375 L8.99999997,16.125 C8.99999997,15.5015625 8.49843749,15 7.87499999,15 L2.06249998,15 C1.75312497,15 1.49999997,15.253125 1.49999997,15.5625 L1.49999997,16.6875 C1.49999997,16.996875 1.75312497,17.25 2.06249998,17.25 L6.74999999,17.25 L6.74999999,21.9375 C6.74999999,22.246875 7.00312499,22.5 7.31249999,22.5 L8.43749999,22.5 C8.74687499,22.5 8.99999997,22.246875 8.99999997,21.9375 Z M17.25,21.9375 L17.25,17.25 L21.9375,17.25 C22.246875,17.25 22.5,16.996875 22.5,16.6875 L22.5,15.5625 C22.5,15.253125 22.246875,15 21.9375,15 L16.125,15 C15.5015625,15 15,15.5015625 15,16.125 L15,21.9375 C15,22.246875 15.253125,22.5 15.5625,22.5 L16.6875,22.5 C16.996875,22.5 17.25,22.246875 17.25,21.9375 Z" id="Worfklow,-Status-&amp;-UI/02-Regular/compress"></path>
        </g>
    </g>
</svg>