<?xml version="1.0" encoding="UTF-8"?>
<svg width="11px" height="11px" viewBox="0 0 11 11" version="1.1" xmlns="http://www.w3.org/2000/svg" xmlns:xlink="http://www.w3.org/1999/xlink">
    <title>Worfklow, Status &amp; UI/01 Light/timesclose</title>
    <g id="03-Overview" stroke="none" stroke-width="1" fill="none" fill-rule="evenodd">
        <g id="Worfklow,-Status-&amp;-UI/01-Light/times" transform="translate(-2.000000, -2.000000)" fill="#637381">
            <path d="M8.49433594,7.5 L11.4990234,4.49531249 L12.1186524,3.87568358 C12.2100586,3.78427733 12.2100586,3.63574218 12.1186524,3.54433593 L11.4556641,2.88134764 C11.3642578,2.78994139 11.2157227,2.78994139 11.1243164,2.88134764 L7.5,6.50566406 L3.87568358,2.88105468 C3.78427733,2.78964843 3.63574218,2.78964843 3.54433593,2.88105468 L2.88105468,3.54404296 C2.78964843,3.63544921 2.78964843,3.78398437 2.88105468,3.87539062 L6.50566406,7.5 L2.88105468,11.1243164 C2.78964843,11.2157227 2.78964843,11.3642578 2.88105468,11.4556641 L3.54404296,12.1186524 C3.63544921,12.2100586 3.78398437,12.2100586 3.87539062,12.1186524 L7.5,8.49433594 L10.5046875,11.4990234 L11.1243164,12.1186524 C11.2157227,12.2100586 11.3642578,12.2100586 11.4556641,12.1186524 L12.1186524,11.4556641 C12.2100586,11.3642578 12.2100586,11.2157227 12.1186524,11.1243164 L8.49433594,7.5 Z"></path>
        </g>
    </g>
</svg>