<?xml version="1.0" encoding="UTF-8"?>
<svg width="93px" height="93px" viewBox="0 0 93 93" version="1.1" xmlns="http://www.w3.org/2000/svg" xmlns:xlink="http://www.w3.org/1999/xlink">
    <title>Group 27Globe-SVM</title>
    <g id="03-Overview" stroke="none" stroke-width="1" fill="none" fill-rule="evenodd">
        <g id="03.2-SVM" transform="translate(-178.000000, -516.000000)" stroke="#81539D">
            <g id="Asset-5" transform="translate(231.500000, 582.000000) rotate(30.000000) translate(-231.500000, -582.000000) translate(53.000000, 397.000000)">
                <g id="Group-8" transform="translate(178.000000, 192.000000) rotate(-30.000000) translate(-178.000000, -192.000000) translate(92.000000, 95.000000)">
                    <g id="Group-27" transform="translate(60.562872, 49.260999)">
                        <ellipse id="Oval" stroke-width="5.3" cx="22.0613482" cy="22.143575" rx="22.0613482" ry="22.143575"></ellipse>
                        <path d="M19.5935694,1.711004 C17.6227717,3.36441217 15.9266471,5.3220576 14.5688149,7.51051174 C12.2748554,11.8788831 10.9941957,16.7111587 10.8225482,21.6461901 C10.7869937,27.2492181 12.0813675,32.7801876 14.5985471,37.7813558 C15.60778,39.5008255 16.8784658,41.05147 18.3646353,42.3771921 L26.4319927,42.3771921 C28.4299651,39.534369 30.1084848,36.4784193 31.4369257,33.265101 C32.7748781,29.2860219 32.4280015,25.3069429 32.5568414,22.6111168 C32.6757705,19.6268075 31.218889,14.0660445 29.0682544,9.17177725 C27.8431327,6.58533064 26.4320771,4.09181854 24.8462713,1.711004 L19.5935694,1.711004 Z" id="Path" stroke-width="2.65"></path>
                        <line x1="21.6054533" y1="1.81048098" x2="22.0613482" y2="42.9243155" id="Path" stroke-width="2.65" stroke-linecap="square"></line>
                        <path d="M5.38154182,11.2408984 C13.0722903,14.7557515 18.9163342,16.5894438 22.9136735,16.7419752 C26.9110127,16.8945065 32.7583601,15.5018289 40.4557158,12.5639422 C42.4378675,16.7121321 43.3694788,20.1639832 43.1910852,22.8896523 C43.0126915,25.6153215 41.6251853,29.514819 39.0186559,34.548354 C31.9621959,30.3835846 26.4551178,28.3011999 22.4974216,28.3011999 C18.5397254,28.3011999 12.8344321,30.3835846 5.38154182,34.548354 C4.59536435,33.4750587 3.93056016,32.3173244 3.39939014,31.0965029 C2.40920335,28.4695226 1.85672159,25.6968178 1.764115,22.8896523 C1.87238161,20.0746307 2.42431549,17.294603 3.39939014,14.6529587 C3.92077885,13.4396241 4.58631933,12.293968 5.38154182,11.2408984 L5.38154182,11.2408984 Z" id="Path" stroke-width="2.65"></path>
                        <line x1="0.901879016" y1="22.5912214" x2="43.2208174" y2="22.5912214" id="Path" stroke-width="2.65" stroke-linecap="square"></line>
                    </g>
                </g>
            </g>
        </g>
    </g>
</svg>