<?xml version="1.0" encoding="UTF-8"?>
<svg width="14px" height="10px" viewBox="0 0 14 10" version="1.1" xmlns="http://www.w3.org/2000/svg" xmlns:xlink="http://www.w3.org/1999/xlink">
    <title>Arrows, Chevrons &amp; Carets/01 Light/angle-down Copy</title>
    <g id="Overview--MVP-Final-screen" stroke="none" stroke-width="1" fill="none" fill-rule="evenodd">
        <g id="01---Landing---Overview-1.1" transform="translate(-349.000000, -75.000000)" fill="#FFFFFF" stroke="#DFE3E8">
            <g id="Arrows,-Chevrons-&amp;-Carets/01-Light/angle-down-Copy" transform="translate(342.000000, 66.000000)">
                <path d="M8.04453124,10.4244141 L13.9998264,16.4253708 L19.8441784,10.4762096 C19.8749469,10.4454411 19.9151633,10.4298828 19.9554688,10.4298828 C19.9957742,10.4298828 20.0359906,10.4454411 20.0667591,10.4762096 L20.0667591,10.4762096 L20.4550404,10.8644909 C20.4858089,10.8952594 20.5013672,10.9354758 20.5013672,10.9757812 C20.5013672,11.0160867 20.4858089,11.0563031 20.452329,11.089804 L20.452329,11.089804 L14.1151122,17.5254781 C14.0837707,17.5561528 14.0426349,17.571044 14.0017286,17.5708034 C13.9608708,17.5705631 13.9199622,17.555043 13.891421,17.5265227 L13.891421,17.5265227 L7.54495962,11.0816029 C7.51419111,11.0508343 7.49863279,11.0106179 7.49863279,10.9703125 C7.49863279,10.9300071 7.51419111,10.8897906 7.54495962,10.8590221 L7.54495962,10.8590221 L7.93324087,10.4707409 C7.96400939,10.4399724 8.0042258,10.4244141 8.04453124,10.4244141 L8.04453124,10.4244141 Z" id="Arrows,-Chevrons-&amp;-Carets/01-Light/angle-down"></path>
            </g>
        </g>
    </g>
</svg>