<?xml version="1.0" encoding="UTF-8"?>
<svg width="12px" height="12px" viewBox="0 0 12 12" version="1.1" xmlns="http://www.w3.org/2000/svg" xmlns:xlink="http://www.w3.org/1999/xlink">
    <title>Worfklow, Status &amp; UI/01 Light/info-circleinfo</title>
    <g id="03-Overview" stroke="none" stroke-width="1" fill="none" fill-rule="evenodd">
        <g id="Worfklow,-Status-&amp;-UI/01-Light/info-circle" fill="#be82ff">
            <path d="M6,0.187499985 C2.7900703,0.187499985 0.187499985,2.7910078 0.187499985,6 C0.187499985,9.2108672 2.7900703,11.8125 6,11.8125 C9.2099297,11.8125 11.8125,9.2108672 11.8125,6 C11.8125,2.7910078 9.2099297,0.187499985 6,0.187499985 Z M6,10.6875 C3.40940624,10.6875 1.31249999,8.59146094 1.31249999,6 C1.31249999,3.41027343 3.40949999,1.31249999 6,1.31249999 C8.58963282,1.31249999 10.6875,3.40947656 10.6875,6 C10.6875,8.59054688 8.59146094,10.6875 6,10.6875 Z M6,2.76562499 C6.54365625,2.76562499 6.984375,3.20634374 6.984375,3.74999999 C6.984375,4.29365625 6.54365625,4.734375 6,4.734375 C5.45634375,4.734375 5.015625,4.29365625 5.015625,3.74999999 C5.015625,3.20634374 5.45634375,2.76562499 6,2.76562499 Z M7.3125,8.71875001 C7.3125,8.87407032 7.18657032,9.00000001 7.03125,9.00000001 L4.96875,9.00000001 C4.81342968,9.00000001 4.6875,8.87407032 4.6875,8.71875001 L4.6875,8.15625001 C4.6875,8.00092969 4.81342968,7.875 4.96875,7.875 L5.25,7.875 L5.25,6.375 L4.96875,6.375 C4.81342968,6.375 4.6875,6.24907031 4.6875,6.09375 L4.6875,5.53125 C4.6875,5.37592969 4.81342968,5.25 4.96875,5.25 L6.46875,5.25 C6.62407031,5.25 6.75,5.37592969 6.75,5.53125 L6.75,7.875 L7.03125,7.875 C7.18657032,7.875 7.3125,8.00092969 7.3125,8.15625001 L7.3125,8.71875001 Z" id="Worfklow,-Status-&amp;-UI/02-Regular/info-circle"></path>
        </g>
    </g>
</svg>